<svg width="2550" height="512" viewBox="0 0 2550 512" fill="none" xmlns="http://www.w3.org/2000/svg">
<rect width="150" height="512" fill="#A22020"/>
<rect x="181" width="150" height="512" fill="#9D9D9D"/>
<path d="M362 0H512V512H362V0Z" fill="#252525"/>
<rect y="432.64" width="512" height="34.1333" fill="white" fill-opacity="0.12"/>
<path d="M765.25 321.55C765.25 328.783 766.3 334.15 768.4 337.65C770.5 340.917 774 343.367 778.9 345L768.4 377.9C757.433 376.967 748.45 374.4 741.45 370.2C734.683 366 729.433 359.467 725.7 350.6C713.567 369.267 695.017 378.6 670.05 378.6C651.617 378.6 636.917 373.35 625.95 362.85C615.217 352.117 609.85 338.233 609.85 321.2C609.85 300.9 617.2 285.383 631.9 274.65C646.6 263.917 667.717 258.55 695.25 258.55H716.6V249.45C716.6 238.017 714.033 230.083 708.9 225.65C703.767 221.217 695.25 219 683.35 219C670.283 219 653.95 222.267 634.35 228.8L623.15 195.55C646.25 186.45 669.117 181.9 691.75 181.9C716.95 181.9 735.5 187.383 747.4 198.35C759.3 209.083 765.25 225.183 765.25 246.65V321.55ZM683.7 342.9C697.7 342.9 708.667 336.017 716.6 322.25V286.9H700.15C673.317 286.9 659.9 296.933 659.9 317C659.9 325.167 661.883 331.583 665.85 336.25C670.05 340.683 676 342.9 683.7 342.9ZM966.806 373H923.756L921.306 348.15C914.773 358.417 906.84 366.117 897.506 371.25C888.173 376.15 877.323 378.6 864.956 378.6C848.156 378.6 835.323 373.583 826.456 363.55C817.59 353.283 813.156 339.05 813.156 320.85V187.5H862.856V314.55C862.856 324.35 864.49 331.35 867.756 335.55C871.023 339.517 876.156 341.5 883.156 341.5C896.456 341.5 907.773 333.45 917.106 317.35V187.5H966.806V373ZM1126.83 364.25C1120.07 368.917 1112.37 372.417 1103.73 374.75C1095.33 377.317 1086.93 378.6 1078.53 378.6C1059.4 378.367 1044.93 372.883 1035.13 362.15C1025.33 351.417 1020.43 335.667 1020.43 314.9V222.5H992.783V187.5H1020.43V146.9L1070.13 140.95V187.5H1112.83L1107.93 222.5H1070.13V313.85C1070.13 322.717 1071.65 329.133 1074.68 333.1C1077.72 337.067 1082.38 339.05 1088.68 339.05C1094.98 339.05 1101.98 336.95 1109.68 332.75L1126.83 364.25ZM1221.08 181.9C1248.85 181.9 1270.55 190.65 1286.18 208.15C1301.81 225.417 1309.63 249.45 1309.63 280.25C1309.63 299.85 1306.01 317.117 1298.78 332.05C1291.78 346.75 1281.51 358.183 1267.98 366.35C1254.68 374.517 1238.93 378.6 1220.73 378.6C1192.96 378.6 1171.15 369.967 1155.28 352.7C1139.65 335.2 1131.83 311.05 1131.83 280.25C1131.83 260.65 1135.33 243.5 1142.33 228.8C1149.56 213.867 1159.83 202.317 1173.13 194.15C1186.66 185.983 1202.65 181.9 1221.08 181.9ZM1221.08 219C1208.48 219 1199.03 224.017 1192.73 234.05C1186.66 243.85 1183.63 259.25 1183.63 280.25C1183.63 301.25 1186.66 316.767 1192.73 326.8C1199.03 336.6 1208.36 341.5 1220.73 341.5C1233.1 341.5 1242.31 336.6 1248.38 326.8C1254.68 316.767 1257.83 301.25 1257.83 280.25C1257.83 259.25 1254.8 243.85 1248.73 234.05C1242.66 224.017 1233.45 219 1221.08 219Z" fill="black"/>
<path d="M1485.76 321.55C1485.76 328.783 1486.81 334.15 1488.91 337.65C1491.01 340.917 1494.51 343.367 1499.41 345L1488.91 377.9C1477.94 376.967 1468.96 374.4 1461.96 370.2C1455.19 366 1449.94 359.467 1446.21 350.6C1434.07 369.267 1415.52 378.6 1390.56 378.6C1372.12 378.6 1357.42 373.35 1346.46 362.85C1335.72 352.117 1330.36 338.233 1330.36 321.2C1330.36 300.9 1337.71 285.383 1352.41 274.65C1367.11 263.917 1388.22 258.55 1415.76 258.55H1437.11V249.45C1437.11 238.017 1434.54 230.083 1429.41 225.65C1424.27 221.217 1415.76 219 1403.86 219C1390.79 219 1374.46 222.267 1354.86 228.8L1343.66 195.55C1366.76 186.45 1389.62 181.9 1412.26 181.9C1437.46 181.9 1456.01 187.383 1467.91 198.35C1479.81 209.083 1485.76 225.183 1485.76 246.65V321.55ZM1404.21 342.9C1418.21 342.9 1429.17 336.017 1437.11 322.25V286.9H1420.66C1393.82 286.9 1380.41 296.933 1380.41 317C1380.41 325.167 1382.39 331.583 1386.36 336.25C1390.56 340.683 1396.51 342.9 1404.21 342.9ZM1612.76 181.9C1625.13 181.9 1636.21 183.767 1646.01 187.5C1656.05 191 1665.5 196.6 1674.36 204.3L1652.66 233.7C1646.6 229.033 1640.65 225.65 1634.81 223.55C1629.21 221.45 1623.03 220.4 1616.26 220.4C1589.9 220.4 1576.71 240.7 1576.71 281.3C1576.71 301.833 1580.1 316.533 1586.86 325.4C1593.63 334.267 1603.31 338.7 1615.91 338.7C1622.45 338.7 1628.4 337.767 1633.76 335.9C1639.13 333.8 1645.43 330.417 1652.66 325.75L1674.36 356.9C1656.63 371.367 1636.33 378.6 1613.46 378.6C1595.26 378.6 1579.4 374.633 1565.86 366.7C1552.56 358.767 1542.3 347.567 1535.06 333.1C1527.83 318.4 1524.21 301.25 1524.21 281.65C1524.21 262.05 1527.83 244.783 1535.06 229.85C1542.3 214.683 1552.56 202.9 1565.86 194.5C1579.4 186.1 1595.03 181.9 1612.76 181.9ZM1852.52 276.05C1852.52 278.383 1852.17 284.8 1851.47 295.3H1735.62C1737.25 312.1 1741.8 324 1749.27 331C1756.73 338 1766.88 341.5 1779.72 341.5C1787.65 341.5 1795.12 340.217 1802.12 337.65C1809.12 335.083 1816.7 331 1824.87 325.4L1845.52 353.4C1824.75 370.2 1801.3 378.6 1775.17 378.6C1746 378.6 1723.6 369.85 1707.97 352.35C1692.33 334.85 1684.52 311.167 1684.52 281.3C1684.52 262.4 1687.78 245.483 1694.32 230.55C1701.08 215.383 1710.77 203.483 1723.37 194.85C1736.2 186.217 1751.37 181.9 1768.87 181.9C1795.23 181.9 1815.77 190.183 1830.47 206.75C1845.17 223.317 1852.52 246.417 1852.52 276.05ZM1803.17 262.05C1803.17 231.25 1792.08 215.85 1769.92 215.85C1759.65 215.85 1751.6 219.7 1745.77 227.4C1740.17 234.867 1736.78 247.117 1735.62 264.15H1803.17V262.05ZM1984.39 182.25C1989.99 182.25 1996.17 183.183 2002.94 185.05L1994.54 233C1988.01 231.367 1982.52 230.55 1978.09 230.55C1967.12 230.55 1958.61 234.4 1952.54 242.1C1946.47 249.8 1941.69 261.467 1938.19 277.1V373H1888.49V187.5H1931.54L1936.09 223.55C1940.52 210.483 1946.94 200.333 1955.34 193.1C1963.97 185.867 1973.66 182.25 1984.39 182.25ZM2181.6 187.5L2122.1 373H2062.95L2002.4 187.5H2056.3L2093.05 334.15L2130.5 187.5H2181.6ZM2357.24 373H2314.19L2311.74 348.15C2305.2 358.417 2297.27 366.117 2287.94 371.25C2278.6 376.15 2267.75 378.6 2255.39 378.6C2238.59 378.6 2225.75 373.583 2216.89 363.55C2208.02 353.283 2203.59 339.05 2203.59 320.85V187.5H2253.29V314.55C2253.29 324.35 2254.92 331.35 2258.19 335.55C2261.45 339.517 2266.59 341.5 2273.59 341.5C2286.89 341.5 2298.2 333.45 2307.54 317.35V187.5H2357.24V373ZM2467.91 181.9C2494.05 181.9 2516.45 189.367 2535.11 204.3L2516.21 232.65C2500.58 222.85 2485.18 217.95 2470.01 217.95C2461.85 217.95 2455.55 219.467 2451.11 222.5C2446.68 225.533 2444.46 229.617 2444.46 234.75C2444.46 238.483 2445.4 241.633 2447.26 244.2C2449.36 246.767 2453.1 249.217 2458.46 251.55C2464.06 253.883 2472.35 256.683 2483.31 259.95C2502.91 265.317 2517.5 272.55 2527.06 281.65C2536.63 290.517 2541.41 302.767 2541.41 318.4C2541.41 330.767 2537.8 341.5 2530.56 350.6C2523.56 359.7 2514 366.7 2501.86 371.6C2489.73 376.267 2476.2 378.6 2461.26 378.6C2445.63 378.6 2431.4 376.267 2418.56 371.6C2405.73 366.7 2394.76 360.05 2385.66 351.65L2410.16 324.35C2425.8 336.483 2442.36 342.55 2459.86 342.55C2469.2 342.55 2476.55 340.8 2481.91 337.3C2487.51 333.567 2490.31 328.55 2490.31 322.25C2490.31 317.35 2489.26 313.5 2487.16 310.7C2485.06 307.9 2481.21 305.333 2475.61 303C2470.01 300.433 2461.26 297.517 2449.36 294.25C2430.7 289.117 2416.81 281.883 2407.71 272.55C2398.85 262.983 2394.41 251.2 2394.41 237.2C2394.41 226.7 2397.45 217.25 2403.51 208.85C2409.58 200.45 2418.1 193.917 2429.06 189.25C2440.26 184.35 2453.21 181.9 2467.91 181.9Z" fill="#A22020"/>
</svg>
