<svg width="2250" height="512" viewBox="0 0 2250 512" fill="none" xmlns="http://www.w3.org/2000/svg">
<rect width="150" height="512" fill="#A22020"/>
<rect x="181" width="150" height="512" fill="#9D9D9D"/>
<path d="M362 0H512V512H362V0Z" fill="#252525"/>
<rect y="432.64" width="512" height="34.1333" fill="white" fill-opacity="0.12"/>
<path d="M720.5 312.9C720.5 319.1 721.4 323.7 723.2 326.7C725 329.5 728 331.6 732.2 333L723.2 361.2C713.8 360.4 706.1 358.2 700.1 354.6C694.3 351 689.8 345.4 686.6 337.8C676.2 353.8 660.3 361.8 638.9 361.8C623.1 361.8 610.5 357.3 601.1 348.3C591.9 339.1 587.3 327.2 587.3 312.6C587.3 295.2 593.6 281.9 606.2 272.7C618.8 263.5 636.9 258.9 660.5 258.9H678.8V251.1C678.8 241.3 676.6 234.5 672.2 230.7C667.8 226.9 660.5 225 650.3 225C639.1 225 625.1 227.8 608.3 233.4L598.7 204.9C618.5 197.1 638.1 193.2 657.5 193.2C679.1 193.2 695 197.9 705.2 207.3C715.4 216.5 720.5 230.3 720.5 248.7V312.9ZM650.6 331.2C662.6 331.2 672 325.3 678.8 313.5V283.2H664.7C641.7 283.2 630.2 291.8 630.2 309C630.2 316 631.9 321.5 635.3 325.5C638.9 329.3 644 331.2 650.6 331.2ZM893.263 357H856.363L854.263 335.7C848.663 344.5 841.863 351.1 833.863 355.5C825.863 359.7 816.563 361.8 805.963 361.8C791.563 361.8 780.563 357.5 772.963 348.9C765.363 340.1 761.563 327.9 761.563 312.3V198H804.163V306.9C804.163 315.3 805.563 321.3 808.363 324.9C811.163 328.3 815.563 330 821.563 330C832.963 330 842.663 323.1 850.663 309.3V198H893.263V357ZM1030.43 349.5C1024.63 353.5 1018.03 356.5 1010.63 358.5C1003.43 360.7 996.228 361.8 989.028 361.8C972.628 361.6 960.228 356.9 951.828 347.7C943.428 338.5 939.228 325 939.228 307.2V228H915.528V198H939.228V163.2L981.828 158.1V198H1018.43L1014.23 228H981.828V306.3C981.828 313.9 983.128 319.4 985.728 322.8C988.328 326.2 992.328 327.9 997.728 327.9C1003.13 327.9 1009.13 326.1 1015.73 322.5L1030.43 349.5ZM1111.21 193.2C1135.01 193.2 1153.61 200.7 1167.01 215.7C1180.41 230.5 1187.11 251.1 1187.11 277.5C1187.11 294.3 1184.01 309.1 1177.81 321.9C1171.81 334.5 1163.01 344.3 1151.41 351.3C1140.01 358.3 1126.51 361.8 1110.91 361.8C1087.11 361.8 1068.41 354.4 1054.81 339.6C1041.41 324.6 1034.71 303.9 1034.71 277.5C1034.71 260.7 1037.71 246 1043.71 233.4C1049.91 220.6 1058.71 210.7 1070.11 203.7C1081.71 196.7 1095.41 193.2 1111.21 193.2ZM1111.21 225C1100.41 225 1092.31 229.3 1086.91 237.9C1081.71 246.3 1079.11 259.5 1079.11 277.5C1079.11 295.5 1081.71 308.8 1086.91 317.4C1092.31 325.8 1100.31 330 1110.91 330C1121.51 330 1129.41 325.8 1134.61 317.4C1140.01 308.8 1142.71 295.5 1142.71 277.5C1142.71 259.5 1140.11 246.3 1134.91 237.9C1129.71 229.3 1121.81 225 1111.21 225Z" fill="black"/>
<path d="M1338.08 312.9C1338.08 319.1 1338.98 323.7 1340.78 326.7C1342.58 329.5 1345.58 331.6 1349.78 333L1340.78 361.2C1331.38 360.4 1323.68 358.2 1317.68 354.6C1311.88 351 1307.38 345.4 1304.18 337.8C1293.78 353.8 1277.88 361.8 1256.48 361.8C1240.68 361.8 1228.08 357.3 1218.68 348.3C1209.48 339.1 1204.88 327.2 1204.88 312.6C1204.88 295.2 1211.18 281.9 1223.78 272.7C1236.38 263.5 1254.48 258.9 1278.08 258.9H1296.38V251.1C1296.38 241.3 1294.18 234.5 1289.78 230.7C1285.38 226.9 1278.08 225 1267.88 225C1256.68 225 1242.68 227.8 1225.88 233.4L1216.28 204.9C1236.08 197.1 1255.68 193.2 1275.08 193.2C1296.68 193.2 1312.58 197.9 1322.78 207.3C1332.98 216.5 1338.08 230.3 1338.08 248.7V312.9ZM1268.18 331.2C1280.18 331.2 1289.58 325.3 1296.38 313.5V283.2H1282.28C1259.28 283.2 1247.78 291.8 1247.78 309C1247.78 316 1249.48 321.5 1252.88 325.5C1256.48 329.3 1261.58 331.2 1268.18 331.2ZM1446.94 193.2C1457.54 193.2 1467.04 194.8 1475.44 198C1484.04 201 1492.14 205.8 1499.74 212.4L1481.14 237.6C1475.94 233.6 1470.84 230.7 1465.84 228.9C1461.04 227.1 1455.74 226.2 1449.94 226.2C1427.34 226.2 1416.04 243.6 1416.04 278.4C1416.04 296 1418.94 308.6 1424.74 316.2C1430.54 323.8 1438.84 327.6 1449.64 327.6C1455.24 327.6 1460.34 326.8 1464.94 325.2C1469.54 323.4 1474.94 320.5 1481.14 316.5L1499.74 343.2C1484.54 355.6 1467.14 361.8 1447.54 361.8C1431.94 361.8 1418.34 358.4 1406.74 351.6C1395.34 344.8 1386.54 335.2 1380.34 322.8C1374.14 310.2 1371.04 295.5 1371.04 278.7C1371.04 261.9 1374.14 247.1 1380.34 234.3C1386.54 221.3 1395.34 211.2 1406.74 204C1418.34 196.8 1431.74 193.2 1446.94 193.2ZM1652.44 273.9C1652.44 275.9 1652.14 281.4 1651.54 290.4H1552.24C1553.64 304.8 1557.54 315 1563.94 321C1570.34 327 1579.04 330 1590.04 330C1596.84 330 1603.24 328.9 1609.24 326.7C1615.24 324.5 1621.74 321 1628.74 316.2L1646.44 340.2C1628.64 354.6 1608.54 361.8 1586.14 361.8C1561.14 361.8 1541.94 354.3 1528.54 339.3C1515.14 324.3 1508.44 304 1508.44 278.4C1508.44 262.2 1511.24 247.7 1516.84 234.9C1522.64 221.9 1530.94 211.7 1541.74 204.3C1552.74 196.9 1565.74 193.2 1580.74 193.2C1603.34 193.2 1620.94 200.3 1633.54 214.5C1646.14 228.7 1652.44 248.5 1652.44 273.9ZM1610.14 261.9C1610.14 235.5 1600.64 222.3 1581.64 222.3C1572.84 222.3 1565.94 225.6 1560.94 232.2C1556.14 238.6 1553.24 249.1 1552.24 263.7H1610.14V261.9ZM1765.48 193.5C1770.28 193.5 1775.58 194.3 1781.38 195.9L1774.18 237C1768.58 235.6 1763.88 234.9 1760.08 234.9C1750.68 234.9 1743.38 238.2 1738.18 244.8C1732.98 251.4 1728.88 261.4 1725.88 274.8V357H1683.28V198H1720.18L1724.08 228.9C1727.88 217.7 1733.38 209 1740.58 202.8C1747.98 196.6 1756.28 193.5 1765.48 193.5ZM1934.52 198L1883.52 357H1832.82L1780.92 198H1827.12L1858.62 323.7L1890.72 198H1934.52ZM2085.06 357H2048.16L2046.06 335.7C2040.46 344.5 2033.66 351.1 2025.66 355.5C2017.66 359.7 2008.36 361.8 1997.76 361.8C1983.36 361.8 1972.36 357.5 1964.76 348.9C1957.16 340.1 1953.36 327.9 1953.36 312.3V198H1995.96V306.9C1995.96 315.3 1997.36 321.3 2000.16 324.9C2002.96 328.3 2007.36 330 2013.36 330C2024.76 330 2034.46 323.1 2042.46 309.3V198H2085.06V357ZM2179.93 193.2C2202.33 193.2 2221.53 199.6 2237.53 212.4L2221.33 236.7C2207.93 228.3 2194.73 224.1 2181.73 224.1C2174.73 224.1 2169.33 225.4 2165.53 228C2161.73 230.6 2159.83 234.1 2159.83 238.5C2159.83 241.7 2160.63 244.4 2162.23 246.6C2164.03 248.8 2167.23 250.9 2171.83 252.9C2176.63 254.9 2183.73 257.3 2193.13 260.1C2209.93 264.7 2222.43 270.9 2230.63 278.7C2238.83 286.3 2242.93 296.8 2242.93 310.2C2242.93 320.8 2239.83 330 2233.63 337.8C2227.63 345.6 2219.43 351.6 2209.03 355.8C2198.63 359.8 2187.03 361.8 2174.23 361.8C2160.83 361.8 2148.63 359.8 2137.63 355.8C2126.63 351.6 2117.23 345.9 2109.43 338.7L2130.43 315.3C2143.83 325.7 2158.03 330.9 2173.03 330.9C2181.03 330.9 2187.33 329.4 2191.93 326.4C2196.73 323.2 2199.13 318.9 2199.13 313.5C2199.13 309.3 2198.23 306 2196.43 303.6C2194.63 301.2 2191.33 299 2186.53 297C2181.73 294.8 2174.23 292.3 2164.03 289.5C2148.03 285.1 2136.13 278.9 2128.33 270.9C2120.73 262.7 2116.93 252.6 2116.93 240.6C2116.93 231.6 2119.53 223.5 2124.73 216.3C2129.93 209.1 2137.23 203.5 2146.63 199.5C2156.23 195.3 2167.33 193.2 2179.93 193.2Z" fill="#A22020"/>
</svg>
